<?xml version="1.0" encoding="UTF-8" standalone="no"?>
<!-- Created with Inkscape (http://www.inkscape.org/) -->

<svg
   width="210mm"
   height="297mm"
   viewBox="0 0 210 297"
   version="1.1"
   id="svg1"
   inkscape:version="1.4.2 (f4327f4, 2025-05-13)"
   sodipodi:docname="light_on.svg"
   xmlns:inkscape="http://www.inkscape.org/namespaces/inkscape"
   xmlns:sodipodi="http://sodipodi.sourceforge.net/DTD/sodipodi-0.dtd"
   xmlns="http://www.w3.org/2000/svg"
   xmlns:svg="http://www.w3.org/2000/svg">
  <sodipodi:namedview
     id="namedview1"
     pagecolor="#ffffff"
     bordercolor="#000000"
     borderopacity="0.25"
     inkscape:showpageshadow="2"
     inkscape:pageopacity="0.0"
     inkscape:pagecheckerboard="0"
     inkscape:deskcolor="#d1d1d1"
     inkscape:document-units="mm"
     inkscape:zoom="0.36756309"
     inkscape:cx="228.53219"
     inkscape:cy="757.69305"
     inkscape:window-width="933"
     inkscape:window-height="1211"
     inkscape:window-x="395"
     inkscape:window-y="275"
     inkscape:window-maximized="0"
     inkscape:current-layer="layer1" />
  <defs
     id="defs1" />
  <g
     inkscape:label="Layer 1"
     inkscape:groupmode="layer"
     id="layer1">
    <g
       id="g21"
       transform="matrix(0.33295291,0,0,0.33295291,17.686706,56.908437)"
       inkscape:label="light bulb on">
	<g
   id="g1">
		<path
   style="fill:#868491"
   d="m 280.01,464.008 h -48 c -4.422,0 -8,3.578 -8,8 v 8 c 0,17.648 14.352,32 32,32 17.648,0 32,-14.352 32,-32 v -8 c 0,-4.422 -3.578,-8 -8,-8 z"
   id="path1" />

	</g>

	<g
   id="g2">
		<path
   style="fill:#5c546a"
   d="M 256.002,464.008 H 232.01 c -4.422,0 -8,3.578 -8,8 v 8 c 0,17.646 14.347,31.995 31.992,31.999 z"
   id="path2" />

	</g>

	<g
   id="g3">
		<path
   style="fill:#ffcd00"
   d="M 381.983,49.895 C 344.592,14.754 295.616,-2.847 244.249,0.375 150.639,6.2 75.014,84.286 72.092,178.149 c -2.156,69.547 34.375,133.578 95.344,167.117 15.156,8.344 24.57,24.367 24.57,41.828 v 60.914 c 0,17.648 14.352,32 32,32 h 64 c 17.648,0 32,-14.352 32,-32 v -60.914 c 0,-17.445 9.484,-33.508 24.766,-41.93 58.742,-32.406 95.234,-94.156 95.234,-161.156 0,-50.578 -21.148,-99.461 -58.023,-134.113 z"
   id="path3" />

	</g>

	<g
   id="g4">
		<circle
   style="fill:#ffe671"
   cx="256.00201"
   cy="184.008"
   r="128"
   id="circle3" />

	</g>

	<g
   id="g6">
		<g
   id="g5">
			<path
   style="fill:#ffffff"
   d="m 283.986,232.008 c -10.633,0 -16.07,-6.203 -20.031,-10.727 -3.492,-3.984 -4.883,-5.273 -8,-5.273 -3.102,0 -4.484,1.289 -7.961,5.266 -3.734,4.273 -9.383,10.734 -20.016,10.734 -10.625,0 -16.273,-6.461 -20.008,-10.734 -3.477,-3.977 -4.859,-5.266 -7.961,-5.266 -4.422,0 -8,-3.578 -8,-8 0,-4.422 3.578,-8 8,-8 10.625,0 16.273,6.461 20.008,10.734 3.477,3.977 4.859,5.266 7.961,5.266 3.102,0 4.492,-1.289 7.969,-5.266 3.734,-4.273 9.383,-10.734 20.008,-10.734 10.633,0 16.07,6.203 20.031,10.727 3.492,3.984 4.883,5.273 8,5.273 3.109,0 4.5,-1.289 7.992,-5.266 3.742,-4.273 9.391,-10.734 20.031,-10.734 4.422,0 8,3.578 8,8 0,4.422 -3.578,8 -8,8 -3.117,0 -4.508,1.289 -8,5.273 -3.742,4.274 -9.39,10.727 -20.023,10.727 z"
   id="path4" />

		</g>

	</g>

	<g
   id="g8">
		<g
   id="g7">
			<path
   style="fill:#5c546a"
   d="m 232.002,384.008 c -3.68,0 -6.992,-2.555 -7.813,-6.297 l -40,-184 c -0.938,-4.32 1.805,-8.578 6.117,-9.523 4.344,-0.953 8.578,1.805 9.523,6.117 l 40,184 c 0.938,4.32 -1.805,8.578 -6.117,9.523 -0.577,0.126 -1.148,0.18 -1.71,0.18 z"
   id="path6" />

		</g>

	</g>

	<g
   id="g10">
		<g
   id="g9">
			<path
   style="fill:#5c546a"
   d="m 280.017,384.008 c -0.563,0 -1.133,-0.055 -1.711,-0.18 -4.313,-0.945 -7.055,-5.203 -6.117,-9.523 l 40,-184 c 0.945,-4.313 5.164,-7.063 9.523,-6.117 4.313,0.945 7.055,5.203 6.117,9.523 l -40,184 c -0.819,3.743 -4.132,6.297 -7.812,6.297 z"
   id="path8" />

		</g>

	</g>

	<g
   id="g11">
		<path
   style="fill:#b4b6bc"
   d="m 190.633,376.008 c 0.851,3.593 1.374,7.293 1.374,11.086 v 60.914 c 0,17.648 14.352,32 32,32 h 64 c 17.648,0 32,-14.352 32,-32 v -60.914 c 0,-3.79 0.527,-7.491 1.384,-11.086 z"
   id="path10" />

	</g>

	<g
   id="g12">
		<path
   style="fill:#868491"
   d="m 256.002,376.008 h -65.369 c 0.851,3.593 1.374,7.293 1.374,11.086 v 60.914 c 0,17.648 14.352,32 32,32 h 31.995 z"
   id="path11" />

	</g>

	<g
   id="g14">
		<g
   id="g13">
			<rect
   x="256.00201"
   y="400.008"
   style="fill:#868491"
   width="64"
   height="16"
   id="rect12" />

		</g>

	</g>

	<g
   id="g16">
		<g
   id="g15">
			<rect
   x="256.00601"
   y="432.008"
   style="fill:#868491"
   width="64"
   height="16"
   id="rect14" />

		</g>

	</g>

	<g
   id="g18">
		<g
   id="g17">
			<rect
   x="192.002"
   y="400.008"
   style="fill:#5c546a"
   width="64"
   height="16"
   id="rect16" />

		</g>

	</g>

	<g
   id="g20">
		<g
   id="g19">
			<rect
   x="192.002"
   y="432.008"
   style="fill:#5c546a"
   width="64"
   height="16"
   id="rect18" />

		</g>

	</g>

</g>
  </g>
</svg>
